<?xml version="1.0" standalone="no"?>
<!DOCTYPE svg PUBLIC "-//W3C//DTD SVG 20010904//EN"
 "http://www.w3.org/TR/2001/REC-SVG-20010904/DTD/svg10.dtd">
<svg version="1.0" xmlns="http://www.w3.org/2000/svg"
 width="2000.000000pt" height="2000.000000pt" viewBox="0 0 2000.000000 2000.000000"
 preserveAspectRatio="xMidYMid meet">
<metadata>
Created by potrace 1.16, written by Peter Selinger 2001-2019
</metadata>
<g transform="translate(0.000000,2000.000000) scale(0.100000,-0.100000)"
fill="#000000" stroke="none">
<path d="M9810 10044 c-113 -9 -284 -35 -360 -54 -19 -5 -64 -17 -100 -26 -36
-9 -80 -19 -98 -21 -18 -3 -35 -9 -38 -14 -3 -5 -15 -9 -28 -9 -12 0 -26 -4
-31 -8 -6 -4 -28 -14 -50 -21 -22 -7 -50 -17 -62 -22 -25 -10 -61 -24 -95 -38
-77 -30 -364 -178 -438 -225 -19 -13 -66 -42 -104 -66 -38 -24 -74 -49 -80
-55 -6 -6 -33 -26 -61 -45 -53 -36 -121 -87 -143 -108 -8 -7 -30 -25 -50 -40
-21 -15 -39 -29 -42 -32 -3 -3 -39 -35 -80 -70 -41 -35 -106 -91 -145 -124
-74 -65 -535 -525 -535 -535 -1 -12 -80 -93 -80 -82 0 24 -19 9 -54 -44 -20
-30 -36 -57 -36 -60 0 -3 -52 -84 -115 -181 -63 -96 -115 -179 -115 -185 0 -5
-4 -9 -10 -9 -5 0 -10 -4 -10 -10 0 -5 -23 -44 -50 -87 -68 -106 -64 -100
-111 -173 -23 -36 -50 -78 -59 -95 -87 -149 -155 -265 -171 -287 -11 -14 -19
-29 -19 -32 0 -4 -5 -12 -10 -19 -16 -19 -110 -167 -110 -173 0 -3 -13 -25
-30 -49 -16 -24 -30 -48 -30 -54 0 -6 -4 -11 -9 -11 -5 0 -15 -12 -22 -27 -8
-16 -32 -55 -53 -88 -160 -246 -230 -350 -237 -353 -5 -2 -9 -9 -9 -16 0 -7
-8 -21 -19 -32 -10 -11 -24 -31 -31 -44 -7 -13 -17 -29 -22 -34 -14 -17 -104
-144 -145 -206 -19 -30 -39 -57 -42 -60 -4 -3 -18 -21 -31 -40 -13 -19 -31
-42 -40 -50 -8 -8 -27 -31 -42 -52 -15 -20 -33 -42 -40 -50 -7 -7 -44 -50 -81
-95 -38 -46 -73 -83 -77 -83 -5 0 -12 -9 -15 -21 -8 -23 -359 -379 -420 -424
-22 -17 -52 -42 -67 -57 -14 -16 -30 -28 -35 -28 -5 0 -18 -9 -30 -19 -63 -59
-430 -271 -469 -271 -8 0 -14 -4 -14 -10 0 -5 -7 -10 -15 -10 -15 0 -25 -4
-72 -28 -13 -7 -30 -12 -38 -12 -8 0 -23 -4 -33 -9 -9 -5 -30 -14 -47 -21 -16
-7 -38 -16 -47 -21 -10 -5 -29 -9 -43 -9 -14 0 -25 -4 -25 -10 0 -5 -15 -10
-34 -10 -19 0 -38 -4 -41 -10 -3 -5 -23 -10 -44 -10 -20 0 -41 -4 -47 -10 -5
-5 -74 -11 -153 -12 -78 -1 -144 -5 -147 -9 -13 -21 1026 -31 1211 -11 200 21
381 51 500 81 40 10 93 23 163 40 103 25 415 135 520 182 34 16 66 29 71 29 4
0 35 13 67 29 32 16 118 57 189 92 72 35 158 81 192 101 35 21 65 38 67 38 2
0 51 28 108 63 56 35 114 70 127 78 14 7 34 22 45 32 11 9 24 17 28 17 17 0
682 457 724 498 7 6 15 12 18 12 4 0 133 93 245 177 13 10 33 25 46 33 12 8
71 49 130 90 59 41 115 80 123 85 9 6 25 18 36 28 11 9 25 17 32 17 7 0 14 4
16 9 4 11 177 124 293 191 50 29 106 62 125 73 59 34 294 153 341 171 24 10
58 24 74 31 98 42 303 107 400 126 248 49 279 52 570 53 297 1 420 -10 593
-53 23 -6 59 -15 80 -20 122 -28 471 -163 577 -223 11 -7 52 -28 90 -48 95
-50 142 -77 192 -111 23 -16 44 -29 48 -29 7 0 325 -217 515 -351 129 -91 737
-500 825 -556 74 -46 230 -140 270 -163 19 -11 52 -30 73 -41 228 -132 461
-250 662 -336 19 -9 58 -26 85 -38 58 -26 121 -54 150 -65 11 -4 31 -12 45
-18 14 -5 41 -15 60 -22 19 -7 44 -16 55 -20 46 -18 133 -49 170 -61 22 -6 49
-15 60 -19 107 -41 498 -137 655 -161 232 -36 369 -49 609 -57 290 -10 716 5
896 32 17 3 77 10 135 16 58 6 119 16 135 22 36 12 78 31 85 38 3 3 18 12 34
20 41 21 116 89 116 105 0 7 3 15 8 17 15 6 52 91 52 118 0 16 5 32 10 35 6 3
10 37 10 75 0 38 -4 72 -10 75 -5 3 -10 24 -10 46 0 21 -4 39 -10 39 -5 0 -10
11 -10 25 0 14 -4 25 -10 25 -5 0 -10 9 -10 20 0 11 -4 20 -9 20 -5 0 -11 8
-14 18 -10 28 -88 155 -107 172 -3 3 -12 19 -20 35 -8 17 -30 55 -48 85 -32
51 -35 53 -48 35 -12 -16 -14 -16 -14 -3 0 9 6 18 12 20 10 4 8 15 -7 46 -11
23 -23 42 -27 42 -5 0 -8 6 -8 13 0 7 -9 23 -20 35 -11 12 -20 28 -20 37 0 8
-4 15 -10 15 -5 0 -10 7 -10 15 0 9 -9 25 -20 37 -11 12 -20 28 -20 35 0 7 -4
13 -10 13 -5 0 -10 7 -10 15 0 8 -4 15 -10 15 -5 0 -10 7 -10 15 0 8 -3 15 -8
15 -4 0 -13 15 -21 33 -8 17 -26 50 -41 72 -15 22 -30 47 -33 55 -4 8 -20 35
-36 60 -30 45 -76 123 -114 190 -11 19 -27 46 -36 60 -9 14 -23 37 -30 52 -8
15 -22 37 -33 47 -10 11 -18 27 -18 36 0 8 -4 15 -9 15 -5 0 -11 8 -14 18 -6
18 -38 73 -47 82 -6 5 -34 52 -72 120 -40 70 -133 225 -138 230 -3 3 -11 17
-19 33 -8 15 -18 27 -23 27 -4 0 -8 9 -8 20 0 11 -4 20 -10 20 -5 0 -10 5 -10
11 0 6 -13 29 -28 52 -15 23 -34 54 -41 70 -8 15 -18 27 -23 27 -4 0 -8 7 -8
15 0 8 -4 15 -9 15 -5 0 -11 8 -14 18 -7 19 -50 94 -78 134 -11 14 -19 29 -19
32 0 3 -17 32 -37 63 -21 32 -45 72 -53 88 -9 17 -26 46 -37 66 -12 20 -27 47
-35 60 -7 12 -21 32 -30 43 -10 11 -18 24 -18 29 0 4 -13 28 -30 52 -16 24
-30 48 -30 54 0 6 -4 11 -10 11 -5 0 -10 9 -10 20 0 11 -4 20 -8 20 -5 0 -19
20 -32 45 -12 24 -27 42 -31 39 -12 -7 -1 -31 43 -97 21 -32 38 -60 38 -62 0
-10 64 -105 70 -105 4 0 15 -24 25 -52 9 -29 20 -55 24 -58 10 -7 64 -90 79
-120 6 -14 16 -32 22 -40 31 -48 90 -152 90 -159 0 -7 10 -21 49 -68 6 -6 13
-24 17 -40 3 -15 18 -48 32 -73 l26 -45 -28 18 c-15 10 -34 16 -42 13 -8 -3
-23 3 -34 14 -11 11 -26 17 -35 14 -9 -4 -22 1 -30 12 -22 30 -18 37 20 31 36
-6 44 4 26 32 -6 9 -18 11 -34 7 -19 -4 -31 0 -47 16 -21 23 -22 21 -25 -24
-1 -18 3 -28 11 -28 8 0 14 -4 14 -9 0 -20 -18 -20 -55 -1 -21 11 -42 17 -48
13 -5 -3 -6 3 -3 15 5 15 2 22 -13 27 -11 3 -21 16 -23 28 -2 14 -10 21 -21
21 -10 -1 -17 5 -17 16 0 16 -16 25 -73 44 -23 7 -16 32 8 28 10 -2 14 1 10 7
-12 20 30 -2 59 -31 29 -29 46 -36 46 -18 0 6 -11 15 -25 20 -31 12 -32 26 -2
34 18 5 20 8 7 16 -8 5 -27 7 -41 4 -18 -3 -28 0 -32 9 -9 24 -94 16 -113 -11
-8 -12 -20 -22 -26 -22 -6 0 -5 6 3 16 11 14 11 18 -4 29 -9 7 -20 26 -23 44
-7 32 -19 41 -27 19 -8 -24 -24 6 -30 55 -3 36 -1 47 9 47 19 0 18 19 -1 27
-9 3 -24 -2 -34 -11 -23 -21 -57 -21 -65 1 -5 11 -10 13 -17 6 -13 -13 -1 -43
17 -43 8 0 14 -4 14 -10 0 -5 -5 -10 -11 -10 -6 0 -8 -7 -5 -16 7 -18 -19 -54
-39 -54 -7 0 -16 7 -19 16 -8 22 -8 24 5 24 13 0 38 29 39 44 0 4 -12 5 -26 2
-26 -7 -27 -6 -21 28 3 20 1 38 -4 41 -15 10 -10 23 13 31 21 6 21 7 3 20 -16
12 -20 12 -28 -1 -4 -8 -20 -15 -35 -15 -37 -1 -70 -26 -54 -42 8 -8 15 -8 26
1 8 7 20 10 26 6 15 -9 12 -35 -5 -35 -8 0 -15 -4 -15 -10 0 -15 -43 -12 -68
6 -12 8 -27 12 -33 9 -6 -4 -17 1 -24 11 -19 25 -18 34 0 34 29 0 3 45 -30 51
-10 2 -22 15 -26 29 -4 14 -7 19 -8 13 -1 -19 -38 -16 -49 4 -7 12 -4 21 11
33 l20 17 -23 51 c-13 29 -29 52 -37 52 -18 0 -10 -37 12 -53 16 -13 17 -17 5
-44 -15 -33 -45 -57 -60 -48 -5 3 -7 12 -3 20 4 11 -2 15 -22 15 -20 0 -25 4
-21 18 20 69 17 89 -11 61 -6 -6 -16 -8 -23 -4 -14 9 6 35 26 35 8 0 14 5 14
10 0 21 -50 10 -66 -15 -12 -19 -22 -23 -40 -19 -15 4 -24 2 -24 -5 0 -6 9
-11 19 -11 11 0 23 -5 26 -10 4 -6 11 -7 17 -4 6 4 14 0 19 -7 12 -21 -10 -28
-39 -13 -26 13 -77 9 -100 -9 -9 -7 -16 -7 -24 1 -15 15 -1 32 27 32 41 0 48
49 10 74 -20 13 -28 14 -45 4 -17 -11 -22 -10 -36 11 -15 20 -19 22 -28 9 -20
-27 -86 -32 -86 -6 0 5 10 24 23 41 l23 32 -23 22 -24 23 -8 -23 c-5 -12 -5
-24 1 -28 16 -11 -16 -27 -44 -22 -17 3 -28 13 -33 30 -8 32 -27 25 -39 -15
-5 -18 -12 -32 -16 -32 -9 0 -25 67 -22 92 1 10 -7 18 -21 20 -15 2 -21 9 -19
21 2 9 -2 17 -8 17 -5 0 -10 15 -10 33 0 17 -4 27 -8 21 -4 -6 -13 -13 -21
-15 -11 -4 -11 -8 3 -21 16 -17 21 -40 10 -51 -11 -10 -64 22 -64 39 0 12 -6
15 -25 10 -22 -6 -25 -3 -25 19 0 14 -4 25 -10 25 -11 0 -14 -73 -3 -83 3 -4
12 -2 19 4 7 6 18 8 24 4 13 -8 13 -65 0 -65 -5 0 -10 5 -10 11 0 6 -8 9 -17
6 -43 -12 -48 -11 -45 2 1 7 -2 19 -8 26 -8 9 -8 15 0 20 14 8 13 48 -2 63
-25 25 -37 13 -33 -33 5 -44 -10 -71 -21 -41 -10 25 -54 21 -54 -5 0 -18 -2
-19 -15 -5 -8 8 -15 20 -15 26 0 7 -8 9 -22 5 -19 -6 -21 -5 -10 6 6 7 12 21
12 32 0 11 5 17 13 14 6 -2 11 -14 9 -25 -2 -15 2 -22 12 -22 9 0 16 3 16 8 0
4 14 15 30 24 40 23 38 34 -6 43 -21 3 -45 16 -55 28 -9 12 -28 23 -41 24 -79
7 -128 8 -128 2 0 -16 30 -29 54 -23 19 4 28 2 32 -11 5 -13 14 -15 35 -11 33
6 39 -9 12 -29 -14 -10 -20 -10 -31 2 -8 8 -21 12 -28 9 -7 -3 -16 -1 -19 4
-4 6 -19 10 -36 10 -16 0 -29 3 -29 8 0 6 -9 18 -58 77 -5 6 -12 23 -16 38 -7
31 -26 36 -33 8 -3 -11 -14 -22 -26 -25 -26 -6 -35 0 -20 15 6 6 9 18 6 26 -5
12 -8 12 -22 -1 -21 -19 -71 -32 -71 -17 0 6 7 8 16 4 13 -5 15 -2 10 15 -4
11 -2 23 4 27 5 3 15 15 20 26 15 27 -13 26 -41 -2 -23 -23 -39 -18 -20 5 10
12 8 13 -9 9 -13 -3 -25 0 -30 7 -7 11 -12 10 -25 -3 -20 -21 -26 -21 -51 -3
-14 11 -16 18 -8 26 18 19 5 58 -22 63 -25 4 -34 -16 -13 -29 11 -6 9 -32 -6
-66 -4 -11 -3 -18 4 -18 19 0 61 -31 55 -41 -3 -5 -19 -2 -36 7 -30 16 -32 15
-48 -6 -26 -35 -44 -16 -23 23 10 18 22 35 28 39 5 4 6 10 2 14 -3 4 -13 1
-22 -6 -20 -16 -45 -6 -45 20 0 11 -4 20 -8 20 -14 0 -32 -23 -32 -42 0 -23
-13 -23 -34 1 -10 11 -24 17 -32 14 -10 -3 -14 2 -14 20 0 20 -4 24 -26 21
-18 -2 -24 2 -20 11 5 13 -28 55 -44 55 -5 0 -15 -6 -22 -13 -14 -14 -52 -37
-62 -37 -3 0 -3 6 0 14 8 20 -12 29 -36 16 -13 -7 -20 -7 -20 0 0 5 -8 10 -18
10 -29 0 -31 8 -13 50 22 54 61 66 61 19 0 -10 7 -19 15 -19 22 0 18 26 -7 50
-24 22 -38 26 -38 10 0 -17 -47 -11 -54 7 -5 12 -9 14 -18 5 -19 -19 -31 -14
-24 12 4 17 1 26 -11 30 -9 4 -18 4 -21 1 -3 -3 0 -5 6 -5 15 0 16 -27 1 -35
-6 -4 -13 3 -16 15 -4 16 -8 19 -15 8 -7 -10 -10 -9 -19 5 -7 11 -17 16 -29
12 -12 -4 -20 0 -23 12 -3 15 -6 13 -15 -9 -6 -15 -9 -35 -6 -43 10 -25 -24
-17 -42 10 -9 14 -19 24 -21 21 -5 -5 16 -48 27 -56 5 -4 32 -53 77 -142 15
-30 33 -37 33 -14 0 16 -41 97 -66 134 -15 20 -15 22 0 22 9 0 16 5 16 10 0 7
6 7 19 1 10 -6 21 -7 25 -4 3 3 6 1 6 -6 0 -7 4 -10 9 -6 5 3 12 1 15 -4 4 -6
18 -5 36 2 38 14 47 4 21 -24 -12 -13 -21 -30 -21 -38 -1 -14 -3 -13 -14 2
-11 14 -15 15 -24 4 -16 -18 -7 -68 14 -84 21 -16 34 -16 69 -3 20 8 27 7 31
-5 9 -23 -18 -105 -34 -105 -9 0 -12 7 -9 20 3 11 2 20 -2 20 -12 0 -47 -29
-35 -30 6 0 14 -13 17 -29 7 -32 39 -70 45 -52 2 6 11 11 19 11 11 0 14 -7 9
-25 -4 -16 2 -39 19 -69 27 -48 31 -66 15 -66 -5 0 -10 7 -10 15 0 8 -4 15 -8
15 -5 0 -15 12 -23 28 -8 15 -22 36 -31 46 -10 11 -18 25 -18 30 0 6 -14 22
-31 36 -16 14 -116 110 -222 214 -169 167 -277 265 -453 412 -131 109 -395
296 -544 386 -74 45 -318 171 -395 203 -22 10 -53 23 -69 31 -16 8 -35 14 -42
14 -7 0 -29 9 -49 20 -20 11 -44 20 -55 20 -10 0 -22 5 -25 10 -3 6 -17 10
-30 10 -13 0 -27 5 -30 10 -3 6 -21 10 -40 10 -19 0 -36 4 -39 9 -3 5 -20 11
-38 14 -18 3 -53 10 -78 16 -56 14 -130 28 -245 47 -86 14 -467 26 -565 18z"/>
<path d="M3795 5685 c0 -18 -5 -29 -12 -28 -6 2 -15 -6 -18 -17 -4 -11 -10
-18 -15 -15 -5 3 -11 1 -14 -4 -9 -15 22 -67 49 -81 14 -7 25 -17 25 -21 0 -4
14 -3 31 3 39 13 48 3 21 -22 -21 -20 -23 -20 -54 -4 -22 11 -33 13 -36 5 -8
-23 -122 -61 -122 -40 0 6 -6 9 -14 6 -8 -3 -17 1 -20 9 -6 16 -36 19 -36 4 0
-5 -7 -10 -16 -10 -13 0 -14 -3 -5 -13 6 -8 8 -16 6 -19 -3 -3 6 -3 21 0 23 4
26 2 21 -12 -4 -10 -7 -22 -7 -27 0 -19 -31 -8 -60 22 -28 29 -30 30 -30 10 0
-11 5 -21 10 -21 6 0 10 -4 10 -10 0 -16 -40 -51 -50 -45 -11 7 -50 -16 -50
-30 0 -19 -18 -37 -29 -30 -8 5 -9 11 -2 19 8 9 6 18 -4 32 -9 12 -14 14 -15
6 0 -7 -5 -10 -11 -6 -8 4 -8 9 0 17 6 6 11 18 11 26 0 11 -5 8 -16 -7 -15
-21 -15 -25 0 -41 9 -10 16 -27 16 -39 0 -12 9 -26 19 -32 29 -15 61 -12 61 5
0 8 5 15 10 15 6 0 10 11 10 25 0 26 14 33 25 15 4 -6 1 -18 -6 -26 -13 -16
-11 -20 11 -25 22 -5 60 37 60 66 0 28 17 32 46 10 18 -14 18 -15 -13 -40
l-33 -26 27 -25 c17 -15 21 -24 11 -24 -7 0 -19 5 -25 11 -19 19 -44 3 -38
-23 4 -17 0 -27 -15 -36 -26 -16 -50 -1 -51 32 0 20 -1 20 -8 1 -4 -10 -7 -30
-5 -42 1 -13 -2 -23 -8 -23 -6 0 -16 -7 -23 -16 -11 -15 -14 -15 -41 2 -16 10
-36 27 -45 36 -14 15 -18 16 -28 5 -13 -16 -5 -27 21 -27 20 0 24 -16 6 -23
-7 -3 -1 -6 14 -6 15 -1 30 -6 33 -12 4 -5 12 -8 18 -6 10 3 42 -41 35 -49 -2
-1 -16 -6 -32 -10 -28 -7 -29 -6 -22 20 6 25 5 27 -16 21 -49 -16 -78 -36 -78
-56 0 -11 5 -17 10 -14 6 3 10 12 10 20 0 8 4 17 10 20 6 3 7 -1 4 -10 -4 -9
1 -21 11 -29 15 -11 16 -13 0 -26 -11 -9 -19 -10 -27 -2 -6 6 -17 8 -24 5 -16
-6 -19 -43 -5 -43 16 0 41 -31 41 -50 0 -13 -5 -17 -15 -14 -11 4 -13 2 -9 -9
5 -15 34 -27 67 -27 21 0 47 23 47 41 0 9 3 10 11 2 6 -6 9 -21 7 -34 -2 -19
-9 -24 -33 -23 -16 0 -21 -1 -11 -3 14 -4 16 -7 6 -13 -7 -4 -9 -13 -6 -19 11
-18 26 -13 36 13 7 18 19 25 57 31 26 4 56 11 65 16 13 7 18 4 23 -11 3 -11
12 -20 20 -20 7 0 16 -7 19 -15 8 -22 104 -11 122 13 11 14 26 18 87 21 10 1
21 9 24 19 9 22 29 42 42 42 6 0 11 9 11 19 0 10 7 22 16 25 10 4 14 12 10 22
-6 17 -6 17 62 -2 18 -5 22 -2 22 17 0 18 2 21 9 10 8 -12 12 -12 25 -2 12 10
23 11 43 3 49 -18 82 -22 89 -11 10 17 -11 31 -49 31 -26 0 -36 5 -40 19 -3
13 -14 19 -31 19 -30 0 -34 14 -8 29 22 13 7 28 -32 33 -16 2 -32 9 -34 17 -3
10 1 12 18 8 12 -3 34 0 48 6 20 9 26 9 30 -1 5 -15 34 -16 49 -1 7 7 24 8 54
1 24 -5 34 -10 22 -11 -13 -1 -23 -6 -23 -12 0 -6 8 -8 19 -4 13 4 20 0 24
-15 6 -24 15 -25 42 -4 16 12 17 16 6 23 -27 17 -2 26 67 25 81 -2 107 8 78
29 -15 11 -27 12 -53 4 -31 -10 -35 -8 -60 21 -30 37 -43 40 -43 13 0 -11 -4
-23 -10 -26 -5 -3 -10 3 -10 14 0 23 -16 29 -23 9 -3 -10 -9 -8 -24 5 -11 9
-25 17 -32 17 -8 0 -11 6 -6 18 4 12 1 11 -15 -5 -25 -27 -36 -29 -44 -7 -3 8
-10 12 -16 9 -5 -3 -10 -2 -10 4 0 6 9 15 20 21 11 6 20 17 20 24 0 8 11 21
25 30 23 15 37 55 15 41 -6 -4 -17 -2 -24 4 -10 8 -22 8 -41 1 -15 -6 -30 -8
-32 -6 -9 8 8 26 24 26 10 0 13 6 9 16 -3 9 -6 18 -6 20 0 2 -11 4 -25 4 -14
0 -29 8 -35 21 -7 12 -18 18 -26 15 -20 -8 -18 28 2 45 14 11 18 10 30 -5 20
-28 40 -13 48 35 8 47 -4 69 -27 50 -11 -9 -17 -8 -27 4 -7 8 -18 15 -26 15
-7 0 -22 14 -34 30 -23 33 -40 39 -40 15 0 -8 6 -15 13 -15 8 0 7 -4 -3 -10
-13 -8 -12 -10 4 -10 16 0 16 -2 5 -16 -10 -13 -10 -17 2 -25 8 -5 19 -7 26
-4 6 2 17 -3 24 -11 17 -20 -6 -37 -40 -29 -20 5 -23 3 -18 -14 3 -13 1 -18
-9 -14 -7 2 -14 19 -16 36 -2 23 -8 32 -20 31 -25 -2 -22 8 5 25 l22 14 -29 8
c-18 5 -35 4 -42 -2 -9 -7 -16 -4 -24 12 -8 14 -8 19 -1 15 6 -4 11 -3 11 1 0
5 10 13 22 18 41 19 34 36 -14 33 -41 -3 -43 -5 -43 -33z"/>
</g>
</svg>
